<svg aria-hidden="true" style="position:absolute;width:0;height:0;overflow:hidden" xmlns="http://www.w3.org/2000/svg"><defs>
<symbol id="icon-smartphone" viewBox="0 0 20 32"><path fill="#757575" style="fill:var(--color1, #757575)" d="M17 0H3a3 3 0 0 0-3 3v26a3 3 0 0 0 3 3h14a3 3 0 0 0 3-3V3a3 3 0 0 0-3-3zM3 2h14c.56 0 1 .44 1 1v21H2V3c0-.56.44-1 1-1zm14 28H3a1 1 0 0 1-1-1v-3h16v3a1 1 0 0 1-1 1z"/><path fill="#757575" style="fill:var(--color1, #757575)" d="M4.7 27.48c.4.36.4.96 0 1.32a1.05 1.05 0 0 1-1.4 0 .9.9 0 0 1 0-1.32c.4-.36 1-.36 1.4 0z"/></symbol>
<symbol id="icon-envelope" viewBox="0 0 16 12"><path style="fill:var(--color1, #757575)" d="M38.67 0H4a4 4 0 0 0-4 4v24a4 4 0 0 0 4 4h34.67a4 4 0 0 0 4-4V4a4 4 0 0 0-4-4zm0 2.67c.2 0 .38.04.54.1h-.01L21.33 18.24 3.47 2.77c.15-.06.33-.1.52-.1h34.68zm0 26.66H4c-.74 0-1.33-.6-1.33-1.33V5.6l17.78 15.41a1.33 1.33 0 0 0 1.77 0L40 5.6V28c0 .74-.6 1.33-1.33 1.33z"/></symbol>
<symbol id="icon-Logo6" viewBox="0 0 57 32"><path fill="#afb1b8" style="fill:var(--color2, #afb1b8)" d="M28.5 14.61a1.56 1.56 0 0 1-.33-1.06v-1.53c0-.47.1-.83.32-1.07s.59-.37 1.1-.37c.49 0 .84.1 1.04.31.23.27.34.6.31.92v.36h-.87v-.36c0-.13 0-.24-.03-.36a.35.35 0 0 0-.12-.21.5.5 0 0 0-.28-.09h-.07a.53.53 0 0 0-.3.1.42.42 0 0 0-.15.23c-.02.12-.03.25-.03.37v1.87c-.02.18.02.36.1.53a.44.44 0 0 0 .41.15h.04c.1 0 .2-.03.27-.08a.37.37 0 0 0 .13-.23c.02-.12.03-.25.03-.37v-.39h.87v.35c.02.34-.08.68-.3.97-.2.22-.55.34-1.05.34s-.88-.13-1.1-.38zm3.64.03c-.22-.25-.33-.6-.33-1.06v-1.61c0-.46.1-.8.33-1.04.22-.24.59-.35 1.1-.35.52 0 .89.11 1.1.35.23.23.34.58.34 1.04v1.61c0 .46-.1.8-.33 1.05-.23.24-.59.36-1.1.36s-.9-.12-1.11-.36zm1.51-.4a.9.9 0 0 0 .11-.48V11.8a.86.86 0 0 0-.1-.47.41.41 0 0 0-.18-.13.48.48 0 0 0-.23-.03h-.07a.48.48 0 0 0-.17.03.43.43 0 0 0-.18.13.96.96 0 0 0-.1.47v1.98c-.01.16.02.34.1.48a.62.62 0 0 0 .64.12.57.57 0 0 0 .18-.12zm2.08-3.62h.95l.7 3 .73-3h.92l.09 4.31h-.68l-.07-2.99-.7 3h-.55l-.73-3.01-.06 3h-.69l.09-4.3zm4.45 0h1.46c.85 0 1.27.42 1.27 1.23 0 .78-.44 1.17-1.33 1.17h-.5v1.91h-.9v-4.3zm1.25 1.85c.09 0 .18 0 .27-.02a.77.77 0 0 0 .23-.12.7.7 0 0 0 .13-.48c0-.14-.01-.27-.04-.4a.36.36 0 0 0-.18-.2.95.95 0 0 0-.41-.07h-.35v1.3h.35zm2.78-1.85h.98l1 4.31h-.85l-.2-.99h-.86l-.2 1h-.86l1-4.32zm.84 2.82-.34-1.8-.34 1.8h.68zM47 10.62h.63l1.21 2.46v-2.45h.76v4.3H49l-1.22-2.56v2.56H47v-4.3zm4.36 2.67-1.01-2.66h.85l.61 1.7.58-1.7h.83l-1 2.67v1.63h-.87V13.3zm-21.47 3.53v.22h-.74v1.75h-.3v-1.75h-.75v-.22h1.8zm2.32 1.98h-.24a.1.1 0 0 1-.07-.03.1.1 0 0 1-.04-.04l-.21-.47h-1.03l-.2.47-.04.05a.1.1 0 0 1-.06.02h-.25l.9-1.97h.33l.9 1.96zm-1.5-.74h.85l-.36-.8a1.33 1.33 0 0 1-.06-.18v-.01l-.04.1-.03.09-.36.8zm3.06.54h.17c.1 0 .2-.03.29-.06h-.01l.12-.05v-.44h-.36c-.02 0-.04 0-.05-.02l-.01-.01-.01-.02v-.15h.7v.75c-.17.11-.38.18-.6.2l-.27.02c-.16 0-.31-.03-.46-.08a.96.96 0 0 1-.59-.51 1 1 0 0 1-.09-.42v-.03a.9.9 0 0 1 .32-.7c.1-.08.23-.15.36-.2a1.5 1.5 0 0 1 .74-.05c.14.02.28.06.4.13l.16.1-.1.12c0 .01-.01.02-.03.02a.1.1 0 0 1-.03.02l-.06-.02a1.12 1.12 0 0 0-.58-.16h-.04c-.12 0-.24.02-.34.06a.74.74 0 0 0-.43.39.94.94 0 0 0 0 .66.78.78 0 0 0 .8.45zm2.9-.04h.98v.23h-1.3v-1.97h.32v1.75zm2 .24h-.3v-1.98h.3v1.98zm1.16-1.97c.02 0 .04.02.05.03l1.32 1.5V16.8h.27v1.99h-.15c-.03 0-.05 0-.07-.02a.18.18 0 0 1-.05-.03l-1.32-1.5v1.55h-.26v-1.98h.21zm3.93-.01v.2h-1.1v.67h.89v.2h-.9v.68h1.1v.21h-1.41v-1.96h1.42zM11.29 4.62l13.76 3.37v11.82l-13.76-3.37V4.62zM10.4 3.6v13.41l15.51 3.81V7.42L10.4 3.6z"/><path fill="#afb1b8" style="fill:var(--color2, #afb1b8)" d="M18.72 27.04 3.2 23.22V9.82l15.52 3.82v13.4z"/><path fill="#afb1b8" style="fill:var(--color2, #afb1b8)" d="M10.66 4.46 24.24 7.8l-5.78 4.98L4.9 9.45l5.77-4.99zm-.26-.85L3.2 9.83l15.52 3.8 7.2-6.22-15.52-3.8zm9.2 22.67 6.33-5.46-6.34-1.56v7.02z"/></symbol>
<symbol id="icon-Logo5" viewBox="0 0 57 32"><path fill="#afb1b8" style="fill:var(--color2, #afb1b8)" d="M14.27 23.86c.13.15.2.33.2.52a.73.73 0 0 1-.08.36.89.89 0 0 1-.22.3c-.26.17-.57.26-.89.24h-1.55v-3.3h1.52l.08-.01c.29 0 .55.09.77.23a.76.76 0 0 1 .29.62.7.7 0 0 1-.18.5.83.83 0 0 1-.46.26c.2.03.39.13.52.28zm-1.81-.5h.64c.15.01.3-.03.42-.1.05-.05.08-.1.1-.16a.33.33 0 0 0 .03-.17.35.35 0 0 0-.02-.18.42.42 0 0 0-.1-.14.66.66 0 0 0-.44-.11h-.64v.86zm1.12 1.27a.42.42 0 0 0 .15-.34v-.02a.42.42 0 0 0-.16-.32.71.71 0 0 0-.4-.12H12.46v.91h.7c.15.01.3-.03.42-.12zm3.8.65-.85-1.3h-.32v1.3h-.72v-3.3h1.37l.1-.01c.33 0 .63.1.87.29a.99.99 0 0 1 .1 1.36c-.17.18-.4.3-.66.34l.9 1.32h-.8zm-1.17-1.74h.6c.4 0 .61-.16.61-.5v-.02a.5.5 0 0 0-.16-.35.67.67 0 0 0-.4-.14H16.2v1zm5.13 1.07h-1.45l-.25.67h-.77l1.34-3.27h.82l1.32 3.27h-.76l-.26-.67zm-.2-.5-.53-1.39-.52 1.4h1.06zm5.16 1.17h-.72l-1.61-2.25v2.24h-.72v-3.3h.72l1.62 2.27v-2.26h.72v3.3zm4.12-.8c-.15.26-.38.46-.66.6-.31.14-.66.2-1 .2h-1.29v-3.3h1.28c.35-.01.7.06 1.02.2.27.13.5.33.65.58a1.77 1.77 0 0 1 0 1.73zm-.83-.07c.2-.22.32-.5.32-.79s-.11-.57-.32-.79a1.32 1.32 0 0 0-.9-.27h-.5v2.13h.5c.33.02.65-.08.9-.28zm-7.8-20.8s9.3 3.21 9.1 7.87v7.87s-9.29-3.22-9.1-7.87V3.6zm17.39 13.9a13.31 13.31 0 0 1 5.85-2h.06v-2.46a12.02 12.02 0 0 0-5.89 4.42l-.02.04z"/><path fill="#afb1b8" style="fill:var(--color2, #afb1b8)" d="M38.12 18.24A12.38 12.38 0 0 1 45 12.56l.09-.03v-7.1s-13.25 4.59-12.97 11.21v11.2s.59-.2 1.52-.59c0-.36 0-.72.05-1.08a11.36 11.36 0 0 1 4.4-7.9l.03-.03z"/><path fill="#afb1b8" style="fill:var(--color2, #afb1b8)" d="M36.86 22.4c.07-.77.23-1.54.47-2.29a10.32 10.32 0 0 0-2.8 6.76v.01c.74-.33 1.62-.74 2.54-1.23a10.7 10.7 0 0 1-.2-3.25zm.53.05c-.09.98-.03 1.97.16 2.93 3.62-1.98 7.69-5.04 7.53-8.75v-.32a12.36 12.36 0 0 0-6.9 2.96l.02-.01c-.42.93-.7 2.01-.8 3.15v.04z"/></symbol>
<symbol id="icon-Logo4" viewBox="0 0 57 32"><path fill="#2196f3" style="fill:var(--color3, #2196f3)" d="M12.88 11.25c-1.28 0-2.32.93-2.32 2.06 0 1.14 1.04 2.06 2.31 2.06 1.29 0 2.33-.92 2.33-2.06 0-1.13-1.04-2.06-2.32-2.06zm17.1-.65c-.01-1.58-.72-3.1-1.98-4.22a7.12 7.12 0 0 0-4.68-1.74h-.05c-1.78 0-3.48.63-4.74 1.75a5.64 5.64 0 0 0-1.97 4.2v8.71s13.41-1.33 13.41-8.7zM5.86 22.16c0 1.1.5 2.15 1.37 2.93a4.96 4.96 0 0 0 3.26 1.21h.03c1.24 0 2.42-.43 3.3-1.21a3.93 3.93 0 0 0 1.37-2.93v-6.05s-9.33.92-9.33 6.05zm4.66 1.08a1.3 1.3 0 0 1-.68-.18c-.2-.11-.35-.28-.44-.48a.96.96 0 0 1-.07-.64c.04-.2.15-.4.33-.55.17-.15.38-.25.62-.3.24-.03.48-.01.7.07s.42.22.56.4a1 1 0 0 1-.15 1.37 1.27 1.27 0 0 1-.87.32zm9.43-.6h-.9v.94h-.47V21.3h1.48v.38h-1.01v.59h.9v.38zm2.25-.15c0 .23-.04.42-.12.59a.9.9 0 0 1-.82.53h-.06a.9.9 0 0 1-.82-.52 1.32 1.32 0 0 1-.12-.55v-.14c0-.23.04-.43.13-.6a.91.91 0 0 1 .82-.53h.03c.18 0 .35.05.5.14.14.1.26.23.34.4.08.16.12.36.12.59v.1zm-.48-.1a.95.95 0 0 0-.12-.55.42.42 0 0 0-.35-.18h-.02c-.16 0-.28.06-.36.18s-.13.3-.13.54v.11c0 .23.04.41.13.54s.2.2.37.2c.15 0 .27-.07.36-.19s.12-.3.12-.54v-.11zm2 .6c0-.1-.03-.17-.1-.21-.1-.07-.2-.12-.33-.15-.16-.05-.3-.1-.39-.16-.25-.14-.39-.33-.39-.56 0-.13.04-.24.11-.33s.17-.17.3-.23a1.13 1.13 0 0 1 .87.01.66.66 0 0 1 .4.61h-.47a.3.3 0 0 0-.1-.24.4.4 0 0 0-.25-.09h-.05c-.09 0-.17.03-.24.08a.23.23 0 0 0-.1.19c0 .08.04.13.12.19.07.05.18.1.33.14.26.08.45.18.58.3a.6.6 0 0 1 .18.44c0 .2-.07.35-.22.46s-.35.17-.6.17h-.02c-.17 0-.33-.03-.47-.1a.68.68 0 0 1-.44-.63v-.01h.47c0 .25.16.37.46.37.1 0 .2-.02.26-.06.06-.06.09-.11.09-.2zm2.5-1.31h-.7v1.9h-.46v-1.9h-.7v-.37h1.86v.37zm1.64.9h-.9v.62h1.06v.37H26.5V21.3h1.52v.38h-1.05v.54h.9v.37zm1.28.17h-.38v.83h-.47V21.3h.85c.26 0 .47.06.62.18.14.12.21.3.21.51 0 .16-.03.28-.1.39a.61.61 0 0 1-.3.24l.5.94v.02h-.51l-.43-.83zm-.38-.39h.38c.11 0 .2-.02.27-.08.06-.06.1-.14.1-.23v-.02c0-.1-.03-.2-.1-.25-.06-.07-.15-.1-.27-.1h-.38v.68zm2.84.41v.8h-.47V21.3h.89c.17 0 .32.03.45.1.13.06.23.15.3.26.07.12.1.25.1.4 0 .22-.07.4-.23.53a.97.97 0 0 1-.63.18h-.4zm0-.37h.42a.4.4 0 0 0 .28-.1c.07-.05.1-.14.1-.24v-.01c0-.1-.04-.2-.1-.26a.37.37 0 0 0-.26-.1h-.44v.7zm2.97.2h-.9v.6h1.05v.37h-1.52V21.3h1.52v.38h-1.05v.54h.9v.37zm2.17-.92h-.7v1.9h-.47v-1.9h-.68v-.37h1.85v.37zm1.64.91h-.9v.61h1.05v.37h-1.53V21.3h1.52v.38H37.5v.54h.9v.37zm1.27.16h-.37v.83h-.47V21.3h.84c.27 0 .49.06.63.18s.21.3.21.51c0 .16-.03.28-.1.39a.65.65 0 0 1-.3.24l.5.94v.02h-.51l-.43-.83zm-.38-.39h.38c.12 0 .22-.02.28-.08.06-.06.1-.14.1-.23v-.02c0-.1-.04-.2-.1-.25-.05-.07-.15-.1-.28-.1h-.37v.68zm2.76.62c0-.09-.03-.16-.1-.2-.09-.06-.2-.12-.32-.15-.17-.05-.3-.1-.4-.16-.25-.14-.38-.33-.38-.56 0-.13.03-.24.1-.33.07-.1.17-.17.3-.23a1.16 1.16 0 0 1 .87.01.66.66 0 0 1 .4.61h-.47c0-.1-.03-.18-.1-.24a.4.4 0 0 0-.25-.09h-.05c-.09 0-.17.03-.24.08a.23.23 0 0 0-.1.19c0 .08.04.13.11.19.08.05.19.1.34.14.27.08.46.18.58.3s.18.26.18.44c0 .2-.07.35-.22.46s-.35.17-.6.17h-.02c-.17 0-.33-.03-.47-.1a.68.68 0 0 1-.44-.63v-.01h.48c0 .25.14.37.44.37.12 0 .2-.02.27-.06.06-.06.1-.11.1-.2z"/></symbol>
<symbol id="icon-Logo3" viewBox="0 0 57 32"><path fill="#afb1b8" style="fill:var(--color2, #afb1b8)" d="M19.41 26.19h.03l.02.01.12.12c-.1.09-.2.15-.33.2-.15.06-.3.09-.46.08-.15 0-.3-.02-.44-.07a.9.9 0 0 1-.53-.5 1.02 1.02 0 0 1 0-.8.96.96 0 0 1 .57-.5 1.35 1.35 0 0 1 .88-.01h-.01c.1.04.22.1.3.18l-.09.11-.03.03a.06.06 0 0 1-.03 0 .1.1 0 0 1-.05-.01l-.05-.03-.07-.04a.82.82 0 0 0-.37-.08h-.04c-.1 0-.21.01-.31.05a.69.69 0 0 0-.42.38.92.92 0 0 0 0 .63c.07.19.21.33.4.4.1.02.2.05.3.05l.18-.02a.7.7 0 0 0 .38-.16.09.09 0 0 1 .05-.02zm3.36-.56c0 .14-.02.26-.07.4a.94.94 0 0 1-.57.5c-.28.1-.6.1-.88 0a1.02 1.02 0 0 1-.35-.2.9.9 0 0 1-.21-.3v-.01a1 1 0 0 1 0-.79.95.95 0 0 1 .22-.3 1.14 1.14 0 0 1 .78-.27c.16 0 .31.02.45.07a.9.9 0 0 1 .64.87v.03zm-.3 0c0-.11-.02-.22-.05-.32a.66.66 0 0 0-.4-.38 1.02 1.02 0 0 0-.65 0 .68.68 0 0 0-.24.15.63.63 0 0 0-.16.23 1 1 0 0 0 0 .64c.07.18.21.32.4.38.2.07.44.07.64 0 .1-.04.18-.08.25-.15a.66.66 0 0 0 .16-.23c.03-.11.05-.22.05-.32zm2.6.33.03.07.03-.07.04-.07.74-1.17.04-.04h.28v1.9h-.26v-1.52l-.74 1.19a.1.1 0 0 1-.05.04.13.13 0 0 1-.06.01h-.04L25 26.3a.1.1 0 0 1-.04-.04l-.77-1.2v1.53h-.25v-1.9h.28c.02 0 .03.02.04.03l.76 1.18.04.07zm2.8-.1v.72h-.3v-1.9h.65c.12 0 .24 0 .36.04.1.02.18.06.26.11.06.06.11.12.15.19.03.08.05.16.04.25 0 .17-.08.33-.2.43a.64.64 0 0 1-.27.13c-.1.03-.21.04-.34.04h-.36zm0-.2h.34c.08 0 .16 0 .23-.03a.5.5 0 0 0 .16-.08.37.37 0 0 0 .13-.29v-.02c0-.05 0-.1-.02-.13a.39.39 0 0 0-.1-.13.63.63 0 0 0-.4-.1h-.35v.78zm3.9.92h-.23a.1.1 0 0 1-.06-.02.12.12 0 0 1-.04-.04l-.2-.46h-.99l-.2.46a.1.1 0 0 1-.1.06H29.7l.88-1.91h.3l.88 1.9zm-1.44-.7h.82l-.34-.78a1.15 1.15 0 0 1-.07-.17v-.01l-.03.1-.03.08-.35.77zm2.7-1.2.04.04 1.28 1.44v-1.49h.25v1.91h-.14l-.06-.01a.16.16 0 0 1-.05-.04l-1.27-1.44v1.5h-.26v-1.92h.16l.05.01zm3.72 1.14v.76h-.3v-.76l-.8-1.15h.27a.1.1 0 0 1 .06.02l.04.04.5.75.08.16.05-.08.05-.08.49-.75a.21.21 0 0 1 .04-.04.1.1 0 0 1 .06-.02h.27l-.82 1.16zm-11.83-4.35.39.03a10.71 10.71 0 0 0 4.75-3.56l.02-.03a8.53 8.53 0 0 0 1.7-5.12v-.16l-2.17-1.87a9.56 9.56 0 0 1-.59 5.93c-.9 1.99-2.31 3.6-4.05 4.76l-.05.02z"/><path fill="#afb1b8" style="fill:var(--color2, #afb1b8)" d="M24.15 21.39h.06a10.82 10.82 0 0 0 4.32-4.92 9.09 9.09 0 0 0 .39-6.25l.01.07-3.08-2.67a11.35 11.35 0 0 1 1.44 7.15v-.06c-.35 2.6-1.48 4.9-3.15 6.68zm10.45-6.55c-.6 2.18-1.89 4-3.6 5.26l-.03.02c-.53.4-1.1.76-1.72 1.07a10.6 10.6 0 0 0 4-1.96 8.92 8.92 0 0 0 2.57-3.26l.03-.05-1.25-1.08z"/><path fill="#afb1b8" style="fill:var(--color2, #afb1b8)" d="m34.1 14.54-1.77-1.55a8.9 8.9 0 0 1-1.7 5.01l.03-.02a10.93 10.93 0 0 1-4.29 3.53l-.06.03c.4 0 .8-.03 1.2-.06 1.7-.6 3.13-1.54 4.3-2.75a9.02 9.02 0 0 0 2.29-4.13v-.06zm-9.69-8.05L22.3 4.64c-1.9.62-3.49 1.74-4.68 3.2l-.01.01a7.95 7.95 0 0 0-1.77 4.95 8.05 8.05 0 0 0 2.15 5.39 10.34 10.34 0 0 0 5.43 3.08l.07.01a11.6 11.6 0 0 0 3.25-7.22v-.04l.02-.64c0-2.6-.88-5-2.36-6.92l.02.03zm14.6 7.77a8.22 8.22 0 0 0-2.96-6.18 10.84 10.84 0 0 0-7.02-2.57h-.08c-1.23 0-2.45.2-3.6.6l12.99 11.27c.42-.92.67-2 .67-3.12z"/></symbol>
<symbol id="icon-Logo2" viewBox="0 0 57 32"><path fill="#afb1b8" style="fill:var(--color2, #afb1b8)" d="M26.73 3.16h-1.38.03c-1.94.11-3.84.6-5.6 1.44l-.23.1v11.82l.54-.18c1.73-.63 3.72-1 5.8-1.02h.01v1.55l-.56.01h-.05c-2.69.15-5.17.9-7.37 2.1l.1-.04V3.79a15.5 15.5 0 0 1 4.04-1.67l.1-.02c1.18-.31 2.53-.5 3.91-.5h.24c.97 0 1.91.13 2.81.36l-.08-.01v1.53c-.54-.14-1.19-.24-1.85-.29h-.07l-.4-.03zm2.68 1.56a16.44 16.44 0 0 0 5.28-.51l-.12.02c1.5-.38 2.82-.9 4.04-1.58l-.08.04v14.88c-1.2.7-2.58 1.29-4.05 1.66l-.1.03c-1.29.32-2.6.5-3.92.5h-.09c-1.02 0-2.01-.13-2.96-.37l.08.02V4.44c.56.13 1.21.23 1.89.28h.03zm7.58.12-.54.18a17.9 17.9 0 0 1-7.02 1h.05l-.44-.03v12.14l.37.04a14.35 14.35 0 0 0 4.69-.43l-.1.01c1.05-.27 1.97-.6 2.84-1.03l-.09.04.24-.11V4.85zM19.06 24.11a.8.8 0 0 0-.57-.24h-.03a.97.97 0 0 0-.35.07.8.8 0 0 0-.5.78v2.03a.85.85 0 0 0 .28.68c.08.07.17.12.27.14s.2.05.3.05c.47-.01.85-.4.85-.86v-.22h-.54v.18c0 .06 0 .12-.02.18a.31.31 0 0 1-.08.11.37.37 0 0 1-.22.08h-.03a.27.27 0 0 1-.22-.1.48.48 0 0 1-.07-.27v-1.9c0-.1.02-.2.07-.3a.27.27 0 0 1 .22-.12h.04c.1 0 .17.05.23.11.05.08.09.17.09.27v.18h.52V24.75c0-.25-.09-.47-.24-.64zm3.14-.02a.94.94 0 0 0-.92-.16c-.1.03-.2.09-.27.16a.89.89 0 0 0-.28.68v1.93c0 .14.02.28.07.4.05.11.12.2.2.27.09.08.18.14.29.18a.9.9 0 0 0 .63 0 .83.83 0 0 0 .56-.79v-2.03c0-.25-.11-.48-.28-.64zm-.24 2.61v.03c0 .1-.04.2-.11.26a.39.39 0 0 1-.5 0 .34.34 0 0 1-.1-.26v-2c0-.1.04-.18.1-.25a.39.39 0 0 1 .5 0c.07.07.1.16.1.26v1.96zm4.37.87V23.9h-.51l-.67 1.95-.68-1.95h-.5v3.68h.52v-2.24h.01l.51 1.58h.27l.52-1.58v2.24h.53zm2.98-3.41a.68.68 0 0 0-.3-.2c-.1-.04-.23-.06-.36-.06h-.79v3.67h.52v-1.44h.27c.16.01.32-.02.47-.1a.88.88 0 0 0 .4-.59 2.51 2.51 0 0 0-.02-.96v.02a.79.79 0 0 0-.19-.35zm-.26 1.12c-.01.06-.03.13-.06.19-.03.05-.07.1-.13.13a.52.52 0 0 1-.23.05h-.26V24.4h.27c.09 0 .16 0 .24.04.05.03.1.08.12.14.03.06.05.13.05.2v.5zm2.74-1.38h-.43l-.8 3.67h.52l.16-.78h.7l.17.78h.51l-.82-3.67zm-.48 2.38.26-1.33.26 1.33h-.52zm3.86-.17-.8-2.21h-.5v3.67h.53v-2.2l.8 2.2h.5V23.9h-.53v2.22zm3.2-2.21-.42 1.46-.44-1.46h-.55l.72 2.12v1.55h.53v-1.55l.72-2.12h-.56zM17.6 28.6h.25v.72h.17v-.71h.25v-.15h-.67v.15zm2.12-.14-.33.86h.18l.07-.2h.34l.07.2h.19l-.34-.86h-.18zm-.02.52.1-.32.12.32h-.22zm2.11.02h.2v.11a.33.33 0 0 1-.2.07h-.01a.21.21 0 0 1-.17-.08.36.36 0 0 1-.06-.2v-.02c0-.19.08-.28.24-.28h.02c.08 0 .15.05.18.13l.17-.03c-.04-.17-.16-.25-.37-.25h-.01c-.11 0-.21.04-.29.1a.41.41 0 0 0-.12.34c0 .11.03.23.11.32.08.07.18.12.3.12h.03c.13 0 .26-.04.36-.14v-.33h-.37V29zm2.15-.54h-.17v.86h.6v-.15h-.43v-.7zm1.81 0h-.17v.86h.17v-.86zm1.77.57-.35-.57h-.17v.86h.16v-.56l.35.56h.17v-.86h-.16v.57zm1.6-.09h.43v-.14h-.43v-.2h.45v-.14h-.63v.86h.66v-.15h-.48v-.23zm3.88-.14h-.34v-.34h-.17v.86h.17v-.38h.34v.38h.17v-.86h-.17v.34zm1.6.14h.44v-.14h-.43v-.2h.46v-.14h-.63v.86h.64v-.15h-.47v-.23zm2.2 0c.14-.02.21-.1.21-.24v-.02a.2.2 0 0 0-.08-.16.48.48 0 0 0-.22-.06h-.39v.86h.17v-.36h.03c.04 0 .08 0 .11.02s.05.04.06.07l.2.26h.2l-.11-.16a.56.56 0 0 0-.19-.21zm-.18-.11h-.13v-.22h.14c.05 0 .12 0 .17.02a.1.1 0 0 1 0 .18.47.47 0 0 1-.15.02h-.03zm1.82.11h.43v-.14h-.43v-.2h.46v-.14h-.63v.86h.64v-.15h-.47v-.23z"/></symbol>
<symbol id="icon-Logo1" viewBox="0 0 57 32"><path fill="#afb1b8" style="fill:var(--color2, #afb1b8)" d="M20.27 3.73 24 7.27h-6.93v17.16H35.2v-6.56l3.73 3.53V3.73H20.27zm14.77 13.73L24.44 7.42h10.6v10.03zm-3.3 4.46h-11.8V10.39h.83v10.76h10.97v.78zm-9.01 4.8-.44.9-.44-.9h-.36l.64 1.2v.7h.32v-.7l.64-1.2h-.37zm.54 1.9.15-.44h.74l.16.43h.34l-.72-1.89h-.3l-.71 1.9h.35zm.52-1.5.28.79h-.55l.27-.79zm1.74.75a.43.43 0 0 0-.07.23c0 .16.05.3.17.4.1.1.26.14.45.14s.35-.05.48-.15l.1.12h.38l-.28-.32c.1-.15.16-.34.16-.58h-.27c0 .13-.03.25-.09.35l-.36-.43.13-.1c.1-.06.16-.13.2-.2a.42.42 0 0 0-.07-.52.48.48 0 0 0-.33-.11h-.04a.5.5 0 0 0-.34.12.46.46 0 0 0-.14.36c0 .06.02.12.05.19s.08.14.15.23c-.1.08-.2.16-.28.27zm.85.41a.48.48 0 0 1-.3.11h-.01a.3.3 0 0 1-.2-.08.28.28 0 0 1-.1-.2v-.01c0-.11.06-.2.17-.28l.03-.03.41.5zm-.33-.84c-.1-.1-.14-.2-.14-.27s.02-.12.06-.16a.19.19 0 0 1 .13-.06h.01c.06 0 .1.02.15.05.03.03.05.08.05.13 0 .07-.03.13-.08.18l-.04.03-.14.1zm3.08 1.04c.13-.12.2-.28.23-.48h-.33c-.02.13-.06.23-.12.29-.07.06-.16.08-.3.08h-.01a.37.37 0 0 1-.3-.16.82.82 0 0 1-.12-.47v-.16c0-.2.04-.36.12-.46.07-.1.19-.16.33-.16.12 0 .21.03.28.1s.1.15.12.28h.33a.72.72 0 0 0-.22-.48.73.73 0 0 0-.47-.17h-.04c-.16 0-.3.04-.41.11a.73.73 0 0 0-.27.32c-.07.13-.1.3-.1.47v.18c0 .17.03.33.1.46s.15.23.27.3c.11.08.25.11.4.11.2 0 .38-.05.51-.17zm1.94-.27c.06-.15.1-.3.1-.5v-.1c0-.19-.04-.35-.1-.48a.73.73 0 0 0-.67-.44h-.03c-.15 0-.28.04-.4.12s-.21.18-.28.32c-.06.14-.1.3-.1.5v.1c0 .18.04.34.1.48s.16.24.28.32a.81.81 0 0 0 .83 0 .75.75 0 0 0 .27-.32zm-.36-1.07c.08.1.13.27.13.48v.1c0 .21-.04.37-.12.48a.38.38 0 0 1-.32.17h-.04a.4.4 0 0 1-.32-.17.82.82 0 0 1-.12-.49v-.1c0-.2.04-.36.12-.48a.39.39 0 0 1 .34-.16.4.4 0 0 1 .33.16z"/></symbol>
<symbol id="icon-linkedin" viewBox="0 0 32 32"><path fill="#afb1b8" style="fill:var(--color2, #afb1b8)" d="M32 32V20.26c0-5.73-1.23-10.16-7.95-10.16h-.26a6.96 6.96 0 0 0-6 3.42l-.01.03h-.1v-2.91H11.3V32h6.64V21.42c0-2.78.53-5.49 3.97-5.49 3.4 0 3.45 3.19 3.45 5.67V32H32zM.53 10.64h6.64V32H.53V10.64zM3.84 0A3.84 3.84 0 0 0 0 3.84v.02a3.87 3.87 0 0 0 3.84 3.87 3.87 3.87 0 0 0 0-7.73z"/></symbol>
<symbol id="icon-facebook" viewBox="0 0 32 32"><path fill="#afb1b8" style="fill:var(--color2, #afb1b8)" d="M21.33 5.31h2.93V.22C23.74.16 22.02 0 20 0c-4.22 0-7.1 2.66-7.1 7.52V12H8.26v5.68h4.64V32h5.7V17.7h4.46l.7-5.7h-5.17V8.08c0-1.65.45-2.77 2.74-2.77z"/></symbol>
<symbol id="icon-twitter" viewBox="0 0 32 32"><path fill="#afb1b8" style="fill:var(--color2, #afb1b8)" d="M32 6.08c-1.18.53-2.46.86-3.78 1.04a6.46 6.46 0 0 0 2.88-3.63 13.95 13.95 0 0 1-4.16 1.6 6.54 6.54 0 0 0-11.37 4.45c0 .54.06 1.06.18 1.56v-.04A18.55 18.55 0 0 1 2.26 4.23l-.03-.04a6.6 6.6 0 0 0 1.98 8.75l.02.02a6.3 6.3 0 0 1-2.96-.8v.06c0 3.2 2.27 5.84 5.26 6.45a6.41 6.41 0 0 1-3.01.1l.04.01a6.64 6.64 0 0 0 6.13 4.56h.01a13.1 13.1 0 0 1-9.77 2.73H0a18.29 18.29 0 0 0 10 2.95h.07c12.08 0 18.67-10 18.67-18.67 0-.29 0-.58-.03-.85A13.1 13.1 0 0 0 32 6.1z"/></symbol>
<symbol id="icon-instagram" viewBox="0 0 32 32"><path fill="#fff" style="fill:var(--color4, #fff)" d="M31.97 9.4c-.03-1.4-.3-2.73-.76-3.96l.02.08a7.86 7.86 0 0 0-1.85-2.83A7.95 7.95 0 0 0 26.54.85 11.48 11.48 0 0 0 22.67.1h-.01a104.86 104.86 0 0 0-6.69-.1h.1c-4.36 0-4.9.02-6.6.1C7.76.16 6.6.45 5.58.83A8 8 0 0 0 2.75 2.7 8 8 0 0 0 .9 5.52 11.47 11.47 0 0 0 .16 9.4a104.86 104.86 0 0 0-.1 6.69V16c0 4.35 0 4.9.08 6.6.03 1.4.3 2.73.78 3.96l-.02-.08a7.78 7.78 0 0 0 1.85 2.83 8 8 0 0 0 2.83 1.86c1.01.38 2.18.65 3.88.73 1.7.08 2.24.1 6.59.1s4.9-.02 6.6-.1c1.4-.02 2.73-.29 3.96-.76l-.08.03a8.24 8.24 0 0 0 4.67-4.64l.02-.05c.38-1.02.67-2.18.73-3.89.08-1.7.1-2.24.1-6.59 0-4.34 0-4.88-.08-6.6zm-2.88 13.08a8.54 8.54 0 0 1-.55 2.96 5.34 5.34 0 0 1-3 3.03l-.04.01c-.56.22-1.42.48-2.97.54-1.68.08-2.2.1-6.47.1a106.97 106.97 0 0 1-6.7-.1h.24a8.45 8.45 0 0 1-2.96-.54 4.96 4.96 0 0 1-1.84-1.2c-.52-.5-.93-1.1-1.19-1.79l-.01-.03a8.64 8.64 0 0 1-.54-2.98 108.65 108.65 0 0 1-.1-6.55v.09c0-4.28.02-4.79.1-6.47.06-1.57.32-2.4.54-2.97.26-.7.66-1.32 1.2-1.83.5-.52 1.12-.93 1.8-1.19h.04c.56-.23 1.4-.49 2.98-.55 1.68-.08 2.19-.1 6.44-.1 4.3 0 4.8 0 6.47.1 1.57.06 2.4.32 2.97.54.7.26 1.33.66 1.84 1.2.53.51.95 1.14 1.2 1.83.21.57.48 1.42.55 2.97.08 1.68.1 2.2.1 6.47s-.02 4.76-.1 6.46z"/><path fill="#fff" style="fill:var(--color4, #fff)" d="M16.06 7.78a8.22 8.22 0 1 0 0 16.44 8.22 8.22 0 1 0 0-16.44zm0 13.55a5.33 5.33 0 1 1 0-10.66 5.33 5.33 0 1 1 0 10.66zM26.53 7.46a1.92 1.92 0 0 1-3.84 0 1.92 1.92 0 0 1 3.84 0z"/></symbol>
<symbol id="icon-astronaut" viewBox="0 0 32 32"><path fill="#2196f3" style="fill:var(--color3, #2196f3)" d="M31.97 4.53a.54.54 0 0 0-.43-.37l-1.9-.27-.86-1.74c-.18-.36-.78-.36-.96 0l-.85 1.74-1.9.27a.54.54 0 0 0-.3.92l1.38 1.34-.33 1.9v.09a.53.53 0 0 0 .78.47l1.7-.9 1.71.9a.53.53 0 0 0 .78-.57v.01l-.33-1.9 1.39-1.35c.14-.14.2-.35.13-.55zm-2.46 1.32a.53.53 0 0 0-.15.47l.19 1.12-1-.53a.52.52 0 0 0-.5 0l-1 .53.2-1.12a.53.53 0 0 0-.16-.47l-.81-.79 1.12-.16a.54.54 0 0 0 .4-.3l.5-1 .5 1c.08.16.23.27.4.3l1.12.16-.8.8zm-3.38 14.68h-1.06v1.06h1.07v-1.07zm0 2.13h-1.06v1.06h1.07v-1.06zm1.07-1.07h-1.06v1.07h1.06v-1.07zm-2.13 0H24v1.07h1.06v-1.07zm-2.67 4.8h-1.06v1.07h1.06v-1.07zm0 2.14h-1.06v1.06h1.06v-1.07zm1.07-1.07H22.4v1.06h1.06v-1.06zm-2.13 0h-1.07v1.06h1.07v-1.06zM16 24.26h-1.06v1.06H16v-1.06zm0 2.13h-1.06v1.07H16v-1.07zm1.07-1.06H16v1.06h1.06v-1.07zm-2.13 0h-1.07v1.06h1.07v-1.07zM5.87 6.13H4.8v1.06h1.07V6.12zm0 2.13H4.8v1.06h1.07V8.26zm1.06-1.07H5.86v1.07h1.07V7.19zm-2.13 0H3.74v1.07H4.8V7.19z"/><path fill="#212121" style="fill:var(--color5, #212121)" d="M24.71 14.16c-.28-.38-.7-.64-1.18-.7a1.77 1.77 0 0 0-1.34.35l-1.25.96-1.9 1.41-1.36-.54A6.93 6.93 0 0 0 14.83 2.4a6.95 6.95 0 0 0-5.84 10.7l-2.77-.03H6.2c-.06 0-.1.02-.16.03l-.03.02h-.03l-3.23 1.6-1.9.91a1.78 1.78 0 0 0 1.8 3.09h-.02l1.39-.73 2.26-1.17 1.36-.01-6.78 6.76a1.64 1.64 0 0 0 0 2.35 1.66 1.66 0 0 0 2.36 0l1.3-1.31 1.75-1.3.9.9-1.76 1.75-1.34 1.33a1.64 1.64 0 0 0 0 2.36 1.66 1.66 0 0 0 2.36 0l3.48-3.47 1.01-1 .02-.03 5.16-5.66 3.48.5h.06a.5.5 0 0 0 .2-.03l.05-.03.06-.02 3.21-2.13.03-.04.04-.02 1.27-1.2a1.78 1.78 0 0 0 .2-2.36h.01zm-22.58 3.6a.72.72 0 0 1-.78-1.2l1.32-.63.32.92.13.4-.99.52zm3.5-1.82-1.55.8-.26-.74-.18-.54 2.03-1-.04 1.48zm15.1-6.61a5.8 5.8 0 0 1-.6 2.56l-4.18-1.9a1.86 1.86 0 0 0-.78-1.39h-.01l1.46-4.86a5.87 5.87 0 0 1 4.1 5.59zm-11.8 0a5.89 5.89 0 0 1 6.68-5.82h-.03l-1.44 4.75h-.05c-1.03 0-1.87.83-1.87 1.86a1.87 1.87 0 0 0 3.48.93l3.87 1.75A5.9 5.9 0 0 1 8.93 9.33zm5.96.8a.8.8 0 1 1-1.61 0 .8.8 0 0 1 1.61 0zM2.47 25.15a.61.61 0 0 1-.86 0 .6.6 0 0 1 0-.85l.96-.96.86.85-.97.95zm3.21 3.73a.6.6 0 0 1-.85-.84l.96-.96.85.84-.96.96zm3.49-3.47L7.4 27.17l-.85-.85 1.76-1.75.1-.14.02-.04a.37.37 0 0 0 .02-.12l.02-.08-.02-.1-.02-.1a.7.7 0 0 0-.09-.14l-.03-.04-1.6-1.6-.06-.03c-.03-.03-.06-.05-.1-.06a.5.5 0 0 0-.08-.03.54.54 0 0 0-.1-.03l-.1.01-.1.02a.31.31 0 0 0-.1.05l-.06.02-1.77 1.33-.9-.9 2.4-2.39 4.36 4.3-.93.9zm6.81-7.02h-.07a.52.52 0 0 0-.35.14l-.05.03-4.7 5.15-4.32-4.25 2.83-2.83c.1-.1.16-.23.16-.37 0-.3-.24-.54-.53-.54l-2.23.01.03-1.6 3.1.02a6.93 6.93 0 0 0 6.31 1.97l-.04.01c.03.03.08.07.13.09l2.4.96.16.76.18.88-3-.42zm4.04.18-.3-1.55 1.44-1.08.38.5.56.75-2.08 1.38zm3.76-2.83-.84.79-.93-1.24.83-.64a.73.73 0 0 1 .55-.14.72.72 0 0 1 .4 1.23z"/><path fill="#212121" style="fill:var(--color5, #212121)" d="m13.6 18.55-2.14-2.14a.53.53 0 0 0-.75 0l-2.15 2.14a.53.53 0 0 0 0 .75l2.15 2.13a.53.53 0 0 0 .75 0l2.14-2.13a.53.53 0 0 0 0-.75zm-2.51 1.75-1.4-1.37 1.39-1.39 1.39 1.39-1.4 1.38zm6.08-15.23-.27 1.04c.08.01 1.74.45 1.74 2.15h1.07c0-2.02-1.67-2.97-2.54-3.19zm2.54 4.26h-1.07v1.06h1.07V9.32z"/></symbol>
<symbol id="icon-diagram" viewBox="0 0 32 32"><path fill="#2196f3" style="fill:var(--color3, #2196f3)" d="M14.93 14.97h1.06v4.8h-1.06v-4.8zm4.26 2.13h1.07v2.66h-1.07V17.1zm-8.53 1.6h1.07v1.06h-1.07V18.7zm-3.2-.54h1.07v1.6H7.46v-1.6z"/><path fill="#212121" style="fill:var(--color5, #212121)" d="M1.6 28.3h25.59c.88 0 1.6-.72 1.6-1.6v-2.14c0-.89-.72-1.6-1.6-1.6h-.54V9.67l3.03-2.87a1.6 1.6 0 1 0-.75-.75v-.01L26.65 8.2V6.97c0-.88-.71-1.6-1.6-1.6H3.73c-.88 0-1.6.72-1.6 1.6v16H1.6c-.88 0-1.6.71-1.6 1.6v2.12c0 .89.72 1.6 1.6 1.6zM30.39 4.83h.04a.53.53 0 1 1-.05 1.06.54.54 0 0 1 0-1.06zM3.2 6.97c0-.3.24-.53.53-.53h21.32c.3 0 .54.23.54.53V9.2l-1.07 1.01V8.04c0-.3-.24-.54-.53-.54H4.8c-.3 0-.53.24-.53.54v13.32c0 .3.24.53.53.53H24c.29 0 .53-.23.53-.53V11.7l1.06-1.01v12.28H3.2v-16zM8 13.9h-.01a1.6 1.6 0 1 0 1.11 2.74l1.86.94c.21.1.47.05.63-.13l3.94-4.43 3.87 2.9c.21.16.5.14.69-.03l3.37-3.2v8.14H5.33V8.56h18.13v2.66l-3.78 3.57-3.9-2.92a.54.54 0 0 0-.72.07l-4 4.5-1.49-.75.03-.2c0-.88-.72-1.6-1.6-1.6zm.53 1.6a.53.53 0 1 1-1.07 0 .53.53 0 1 1 1.07 0zm3.2 8.53h5.32v.53c0 .3-.24.53-.53.53h-4.26a.54.54 0 0 1-.54-.53v-.53zm-10.67.53c0-.3.24-.53.54-.53h9.06v.53c0 .88.71 1.6 1.6 1.6h4.26c.89 0 1.6-.72 1.6-1.6v-.53h9.06c.3 0 .53.24.53.53v2.13c0 .3-.23.53-.53.53H1.6a.53.53 0 0 1-.53-.53v-2.13z"/></symbol>
<symbol id="icon-clock" viewBox="0 0 32 32"><path fill="#212121" style="fill:var(--color5, #212121)" d="M31.3 15.3a15.3 15.3 0 1 0-20.07 14.55l.1.03a.68.68 0 0 0 .54-.06c.14-.08.23-.2.28-.36l3.86-12.25a1.91 1.91 0 1 0-.85-3.63h.01l-5.1-5.1a.64.64 0 0 0-.9.9l5.1 5.1a1.87 1.87 0 0 0 .53 2.3v.01l-3.68 11.67a14.04 14.04 0 1 1 10.66-.38l-.09.03-.4-1.87a.64.64 0 0 0-1.05-.34l-3.83 3.42a.64.64 0 0 0 .22 1.08l4.9 1.57a.64.64 0 0 0 .82-.75l-.39-1.83a15.28 15.28 0 0 0 9.33-14.06v-.03zM16 14.66a.64.64 0 0 1 0 1.28.64.64 0 0 1 0-1.28zm2.1 14.87 2.18-1.95.6 2.84-2.8-.9z"/><path fill="#2196f3" style="fill:var(--color3, #2196f3)" d="M15.36 3.19v1.33a.64.64 0 1 0 1.27-.06V3.18a.64.64 0 0 0-1.28 0zM3.88 14.66a.64.64 0 0 0 0 1.28h1.27a.64.64 0 0 0 0-1.28H3.87zm24.23 1.28a.64.64 0 0 0 0-1.28h-1.28a.64.64 0 0 0 0 1.28h1.28z"/></symbol>
<symbol id="icon-antenna" viewBox="0 0 32 32"><path fill="#212121" style="fill:var(--color5, #212121)" d="m30.77 22.1-8.44-8.5.94-4.62c.24.09.5.14.76.14h.03a2.16 2.16 0 1 0-2.03-1.42V7.7l-4.96.6L8.97.16A.54.54 0 0 0 8.6 0a.52.52 0 0 0-.37.15L6.7 1.65a.53.53 0 0 0 0 .76l.82.82a14.9 14.9 0 0 0 2.52 17.66c.04.05.09.08.14.1-.03.2-.05.38-.05.56v6.18h-6.4a2.67 2.67 0 0 0-2.67 2.67v1.06c0 .3.24.54.54.54h24.53c.3 0 .53-.24.53-.54V30.4c0-1.47-1.2-2.67-2.66-2.67h-6.4V25a14.79 14.79 0 0 0 10.17-1.5l-.08.04.81.82c.1.1.24.16.38.16s.27-.06.37-.15l1.51-1.51a.53.53 0 0 0 0-.75zm-7.5-15.87A1.06 1.06 0 0 1 25.1 7c0 .59-.47 1.06-1.06 1.06a1.07 1.07 0 0 1-.75-1.82zm-1.25 3.5-.6 2.95-1.17-1.18 1.77-1.76zm-.6-.9-1.92 1.91L18 9.25l3.4-.41zM24 28.8c.89 0 1.6.72 1.6 1.6v.54H2.14v-.54c0-.88.72-1.6 1.6-1.6H24zm-7.46-2.14v1.07H11.2v-1.07h5.34zM11.2 25.6v-4.05c0-1.3 1.2-2.35 2.67-2.35s2.66 1.05 2.66 2.35v4.05H11.2zm6.4-1.7v-2.35c0-1.88-1.67-3.41-3.73-3.41h-.07a3.8 3.8 0 0 0-3.2 1.76l-.02.02A13.81 13.81 0 0 1 8.34 3.96l-.03.07 18.6 18.71a13.64 13.64 0 0 1-9.4 1.15l.1.01zm11.3-.68-.76-.76L7.84 2.04l.75-.75 21.06 21.18-.76.75z"/><path fill="#2196f3" style="fill:var(--color3, #2196f3)" d="M13.87 20.27a1.6 1.6 0 0 0 0 3.2 1.6 1.6 0 0 0 0-3.2zm.38 1.98a.53.53 0 0 1-.91-.38c0-.3.23-.54.53-.54a.54.54 0 0 1 .37.91z"/></symbol>
</defs>
</svg>